HIERARCHY
ROOT ui
{
	 OFFSET 0 0 0
	 CHANNELS 3 XPosition YPosition Z Position
	 EndSite
	 {
	 OFFSET 0 -1 0
	 }
}
ROOT li
{
	 OFFSET 0 0 0
	 CHANNELS 3 XPosition YPosition Z Position
	 EndSite
	 {
	 OFFSET 0 -1 0
	 }
}
ROOT ul
{
	 OFFSET 0 0 0
	 CHANNELS 3 XPosition YPosition Z Position
	 EndSite
	 {
	 OFFSET 0 -1 0
	 }
}
ROOT ll
{
	 OFFSET 0 0 0
	 CHANNELS 3 XPosition YPosition Z Position
	 EndSite
	 {
	 OFFSET 0 -1 0
	 }
}
ROOT tt
{
	 OFFSET 0 0 0
	 CHANNELS 3 XPosition YPosition Z Position
	 EndSite
	 {
	 OFFSET 0 -1 0
	 }
}
ROOT tb
{
	 OFFSET 0 0 0
	 CHANNELS 3 XPosition YPosition Z Position
	 EndSite
	 {
	 OFFSET 0 -1 0
	 }
}
ROOT td
{
	 OFFSET 0 0 0
	 CHANNELS 3 XPosition YPosition Z Position
	 EndSite
	 {
	 OFFSET 0 -1 0
	 }
}
ROOT v
{
	 OFFSET 0 0 0
	 CHANNELS 3 XPosition YPosition Z Position
	 EndSite
	 {
	 OFFSET 0 -1 0
	 }
}
ROOT bn
{
	 OFFSET 0 0 0
	 CHANNELS 3 XPosition YPosition Z Position
	 EndSite
	 {
	 OFFSET 0 -1 0
	 }
}
MOTION
Frames: 21
Frame Time: 0.002
-0.003121531009674072	4.2278799414634705E-4	0		0.39966754150390627	-2.399690185546875	0		-1.071052734375	0.058499214172363284	0		-0.8412485961914062	-2.5946240234375	0		1.4362763671875	-0.7665657958984375	0		3.07100341796875	0.01228760528564453	0		4.53941552734375	0.09785291290283203	0		5.6206953125	0.05446729278564453	0		-0.0681822509765625	5.964591796875	0		
-0.006648286819458008	-0.0024289119243621825	0		0.4132819519042969	-2.39793701171875	0		-1.0085280151367189	0.057085983276367186	0		-0.7477476806640625	-2.598760986328125	0		1.430017578125	-0.7583330688476563	0		3.056760986328125	0.021727195739746095	0		4.54100390625	0.09993663787841797	0		5.610287109375	0.05684534072875977	0		-0.07066300201416016	5.96671435546875	0		
-0.007127180099487305	-0.0023537609577178953	0		0.37505194091796873	-2.38796875	0		-1.0148887329101564	0.06228893280029297	0		-0.8318923950195313	-2.584728515625	0		1.4412628173828126	-0.7705194702148438	0		3.0402861328125	0.02221255302429199	0		4.53638427734375	0.09415933990478516	0		5.6098076171875	0.05698488235473633	0		-0.08544090270996094	5.9571201171875	0		
-0.014786172866821289	-0.009117277145385742	0		0.41028958129882814	-2.400734375	0		-1.0153862915039062	0.062348648071289064	0		-0.7527584228515625	-2.602537109375	0		1.4349163818359374	-0.76429443359375	0		3.051645263671875	0.01603626823425293	0		4.53588623046875	0.09427865600585937	0		5.60931005859375	0.057115726470947266	0		-0.08600177764892578	5.957189453125	0		
-0.008133051872253418	-0.002219023942947388	0		0.394738037109375	-2.40331396484375	0		-1.0729974365234376	0.05873939895629883	0		-0.8200126953125	-2.591913330078125	0		1.4203016357421876	-0.76888671875	0		3.055275390625	0.022035194396972657	0		4.539515625	0.10029216766357422	0		5.60880029296875	0.0572351188659668	0		-0.07233893585205078	5.96692236328125	0		
0.014535000801086426	0.005297515869140625	0		0.41342840576171874	-2.3957001953125	0		-1.0005543212890624	0.05607831573486328	0		-0.817409912109375	-2.5879345703125	0		1.44799853515625	-0.7604749145507812	0		3.05476220703125	0.02211951446533203	0		4.539001953125	0.10038961029052734	0		5.61347314453125	0.06522274780273438	0		-0.0729046401977539	5.96697900390625	0		
-0.006084413051605225	8.173230290412903E-4	0		0.383947265625	-2.394968017578125	0		-1.0069439086914063	0.061259754180908205	0		-0.7840238037109375	-2.593685302734375	0		1.4334068603515624	-0.7640845947265625	0		3.05425439453125	0.022193639755249024	0		4.5384931640625	0.10047535705566406	0		5.60777880859375	0.057436126708984375	0		-0.0734591827392578	5.96702880859375	0		
0.012252591133117675	-0.006582594871520996	0		0.40834579467773435	-2.400506103515625	0		-1.0174121704101562	0.06252938079833985	0		-0.797332763671875	-2.586345458984375	0		1.42706005859375	-0.757893310546875	0		3.084728271484375	0.020532180786132812	0		4.533859375	0.09464435577392578	0		5.6072841796875	0.057517189025878906	0		-0.07494683837890626	5.96909375	0		
-0.015001681327819824	0.003081666946411133	0		0.38096514892578126	-2.396837890625	0		-1.0120033569335938	0.05741949081420898	0		-0.7977899169921875	-2.586315185546875	0		1.4324503173828125	-0.7639886474609375	0		3.037292236328125	0.022684438705444336	0		4.53752587890625	0.10061066436767578	0		5.6068115234375	0.05758498001098633	0		-0.07545394134521484	5.96912841796875	0		
0.039399707794189456	-0.004175788879394531	0		0.3923900451660156	-2.403087890625	0		-1.0024730224609375	0.056208251953125	0		-0.8203079833984375	-2.589776123046875	0		1.420967041015625	-0.7656964721679688	0		3.052844482421875	0.02235242462158203	0		4.53708203125	0.10066020202636719	0		5.6063681640625	0.0576397590637207	0		-0.07497343444824218	5.9671328125	0		
-0.0048097710609436035	0.004871028900146485	0		0.3971300048828125	-2.397184814453125	0		-1.067677001953125	0.0657419662475586	0		-0.7796472778320312	-2.587718994140625	0		1.4456949462890625	-0.760257080078125	0		3.07033740234375	0.017964776992797853	0		4.52981494140625	0.1068603744506836	0		5.6153310546875	0.07346732330322266	0		-0.07345325469970704	5.96510595703125	0		
0.008745070457458495	0.001557360053062439	0		0.40102252197265625	-2.386267333984375	0		-1.0091346435546875	0.06137278366088867	0		-0.8308092651367187	-2.578518310546875	0		1.411265380859375	-0.76244384765625	0		3.0551806640625	0.02733561897277832	0		4.53630126953125	0.10072555541992187	0		5.6007763671875	0.06582749938964844	0		-0.06054292678833008	5.97781103515625	0		
-0.011676063537597656	-0.001968183994293213	0		0.379443603515625	-2.3967666015625	0		-1.0194417724609375	0.06260970306396485	0		-0.7623421630859375	-2.58812548828125	0		1.425047119140625	-0.757763427734375	0		3.03573583984375	0.022794101715087892	0		4.53115673828125	0.10885665130615234	0		5.6052548828125	0.05773167419433594	0		-0.07614307403564453	5.96717041015625	0		
0.013022170066833497	-0.002554187059402466	0		0.40607470703125	-2.40039794921875	0		-1.0138552856445313	0.05746774291992188	0		-0.8237335205078125	-2.59170068359375	0		1.4047821044921875	-0.756295654296875	0		3.0514365234375	0.02242300033569336	0		4.53153369140625	0.09484224700927735	0		5.59596240234375	0.05794879913330078	0		-0.09067678070068359	5.9574990234375	0		
-0.01710940933227539	0.003136760950088501	0		0.3907533874511719	-2.40305517578125	0		-1.0041381225585937	0.05622467041015625	0		-0.82089599609375	-2.587781494140625	0		1.4362132568359376	-0.77004833984375	0		3.0511796875	0.0224157772064209	0		4.53541650390625	0.10074073791503907	0		5.59570556640625	0.05794305419921875	0		-0.07670695495605469	5.96715966796875	0		
0.016616470336914064	3.2609599828720094E-4	0		0.39258078002929686	-2.401119140625	0		-1.004356201171875	0.056208580017089844	0		-0.8190686645507812	-2.585844970703125	0		1.4183973388671876	-0.7526489868164062	0		3.050961669921875	0.0223984375	0		4.53933740234375	0.10662779235839843	0		5.614435546875	0.055481315612792965	0		-0.07692319488525391	5.9671435546875	0		
-0.01262478256225586	-0.002019015073776245	0		0.4074884033203125	-2.3974951171875	0		-1.0104166259765626	0.061324752807617185	0		-0.75045654296875	-2.595478759765625	0		1.4271915283203125	-0.7538846435546875	0		3.05078271484375	0.02237106704711914	0		4.53501953125	0.1006938705444336	0		5.60430615234375	0.05768424606323242	0		-0.07709540557861329	5.96711962890625	0		
0.007323678970336914	0.0014808130264282226	0		0.36956503295898435	-2.387641357421875	0		-1.0205299682617188	0.06252871704101562	0		-0.83222802734375	-2.578595703125	0		1.423957763671875	-0.75784765625	0		3.0697548828125	0.02688812255859375	0		4.5348798828125	0.10065366363525391	0		5.60416650390625	0.05764198684692383	0		-0.07817650604248047	5.96911083984375	0		
-0.01593320655822754	-0.005018664836883545	0		0.4051688232421875	-2.40052001953125	0		-1.0206293334960939	0.06249221801757812	0		-0.7537767333984375	-2.59847509765625	0		1.4238563232421875	-0.7578905639648438	0		3.050543701171875	0.022286542892456053	0		4.541615234375	0.09344084167480468	0		5.6040673828125	0.05758812713623047	0		-0.07826036834716797	5.969072265625	0		
0.012071146965026855	-0.0027207860946655274	0		0.39982366943359376	-2.41244775390625	0		-1.07778857421875	0.05878333282470703	0		-0.8216141967773437	-2.587931396484375	0		1.4206796875	-0.7628701782226562	0		3.034489990234375	0.022604303359985353	0		4.53472314453125	0.10054139709472656	0		5.59501171875	0.05773392868041992	0		-0.07734623718261718	5.9670029296875	0		
-0.00677482795715332	0.004668535232543946	0		0.3951519470214844	-2.397389404296875	0		-0.99668505859375	0.06283805847167968	0		-0.8155001220703125	-2.582123291015625	0		1.423754638671875	-0.7589998779296875	0		3.068372314453125	0.017745634078979493	0		4.53952001953125	0.09235648345947266	0		5.6139453125	0.055215938568115235	0		-0.06013286209106445	5.9755498046875	0		
